<svg width="1440" height="900" viewBox="0 0 1440 900" fill="none" xmlns="http://www.w3.org/2000/svg">
<path d="M0 2H1440M0 30H1440M0 58H1440M0 86H1440M0 114H1440M0 142H1440M0 170H1440M0 198H1440M0 226H1440M0 254H1440M0 282H1440M0 310H1440M0 338H1440M0 366H1440M0 394H1440M0 422H1440M0 450H1440M0 478H1440M0 506H1440M0 534H1440M0 562H1440M0 590H1440M0 618H1440M0 646H1440M0 674H1440M0 702H1440M0 730H1440M0 758H1440M0 786H1440M0 814H1440M0 842H1440M0 870H1440M0 898H1440" stroke="url(#paint0_linear_2302_851)" stroke-opacity="0.08" stroke-width="4"/>
<defs>
<linearGradient id="paint0_linear_2302_851" x1="-5.6165e-06" y1="344.5" x2="1440" y2="344.5" gradientUnits="userSpaceOnUse">
<stop stop-color="white"/>
<stop offset="0.326042" stop-color="white" stop-opacity="0.04"/>
<stop offset="0.654167" stop-color="white" stop-opacity="0.04"/>
<stop offset="1" stop-color="white"/>
</linearGradient>
</defs>
</svg>
