<svg width="49" height="48" viewBox="0 0 49 48" fill="none" xmlns="http://www.w3.org/2000/svg">
<rect x="0.5" width="48" height="48" rx="24" fill="#FFDAA2"/>
<path d="M24.5 18.6094C21.5 18.6094 19.1094 21.0469 19.1094 24C19.1094 27 21.5 29.3906 24.5 29.3906C27.4531 29.3906 29.8906 27 29.8906 24C29.8906 21.0469 27.4531 18.6094 24.5 18.6094ZM24.5 27.5156C22.5781 27.5156 20.9844 25.9688 20.9844 24C20.9844 22.0781 22.5312 20.5312 24.5 20.5312C26.4219 20.5312 27.9688 22.0781 27.9688 24C27.9688 25.9688 26.4219 27.5156 24.5 27.5156ZM31.3438 18.4219C31.3438 17.7188 30.7812 17.1562 30.0781 17.1562C29.375 17.1562 28.8125 17.7188 28.8125 18.4219C28.8125 19.125 29.375 19.6875 30.0781 19.6875C30.7812 19.6875 31.3438 19.125 31.3438 18.4219ZM34.9062 19.6875C34.8125 18 34.4375 16.5 33.2188 15.2812C32 14.0625 30.5 13.6875 28.8125 13.5938C27.0781 13.5 21.875 13.5 20.1406 13.5938C18.4531 13.6875 17 14.0625 15.7344 15.2812C14.5156 16.5 14.1406 18 14.0469 19.6875C13.9531 21.4219 13.9531 26.625 14.0469 28.3594C14.1406 30.0469 14.5156 31.5 15.7344 32.7656C17 33.9844 18.4531 34.3594 20.1406 34.4531C21.875 34.5469 27.0781 34.5469 28.8125 34.4531C30.5 34.3594 32 33.9844 33.2188 32.7656C34.4375 31.5 34.8125 30.0469 34.9062 28.3594C35 26.625 35 21.4219 34.9062 19.6875ZM32.6562 30.1875C32.3281 31.125 31.5781 31.8281 30.6875 32.2031C29.2812 32.7656 26 32.625 24.5 32.625C22.9531 32.625 19.6719 32.7656 18.3125 32.2031C17.375 31.8281 16.6719 31.125 16.2969 30.1875C15.7344 28.8281 15.875 25.5469 15.875 24C15.875 22.5 15.7344 19.2188 16.2969 17.8125C16.6719 16.9219 17.375 16.2188 18.3125 15.8438C19.6719 15.2812 22.9531 15.4219 24.5 15.4219C26 15.4219 29.2812 15.2812 30.6875 15.8438C31.5781 16.1719 32.2812 16.9219 32.6562 17.8125C33.2188 19.2188 33.0781 22.5 33.0781 24C33.0781 25.5469 33.2188 28.8281 32.6562 30.1875Z" fill="#1D181F"/>
</svg>
