<svg width="76" height="76" viewBox="0 0 76 76" fill="none" xmlns="http://www.w3.org/2000/svg">
<path fill-rule="evenodd" clip-rule="evenodd" d="M76 0H0V76H53.7401L76 53.7401V0Z" fill="url(#paint0_linear_2302_1128)"/>
<g clip-path="url(#clip0_2302_1128)">
<path d="M35.6352 45H36.8333V39.1667H39.1667V45H40.3648C40.5188 43.5977 41.234 42.4403 42.3948 41.1768C42.5267 41.0345 43.3655 40.1653 43.4647 40.0417C44.2887 39.0122 44.8052 37.771 44.9546 36.4609C45.1041 35.1508 44.8805 33.8251 44.3096 32.6365C43.7387 31.4479 42.8437 30.4448 41.7276 29.7425C40.6116 29.0403 39.3199 28.6676 38.0013 28.6673C36.6827 28.667 35.3908 29.0392 34.2744 29.7409C33.1581 30.4427 32.2626 31.4455 31.6912 32.6338C31.1198 33.8222 30.8956 35.1478 31.0446 36.4579C31.1935 37.7681 31.7094 39.0096 32.533 40.0393C32.6333 40.1642 33.4745 41.0345 33.604 41.1757C34.766 42.4403 35.4812 43.5977 35.6352 45ZM35.6667 47.3333V48.5H40.3333V47.3333H35.6667ZM30.713 41.5C29.6142 40.1272 28.9256 38.4719 28.7265 36.7248C28.5273 34.9777 28.8258 33.2099 29.5875 31.625C30.3491 30.0402 31.543 28.7027 33.0316 27.7667C34.5202 26.8307 36.2429 26.3342 38.0013 26.3345C39.7597 26.3348 41.4822 26.8318 42.9705 27.7683C44.4588 28.7048 45.6522 30.0426 46.4134 31.6277C47.1745 33.2128 47.4724 34.9807 47.2727 36.7278C47.073 38.4748 46.3839 40.1299 45.2847 41.5023C44.5613 42.403 42.6667 43.8333 42.6667 45.5833V48.5C42.6667 49.1188 42.4208 49.7123 41.9832 50.1499C41.5457 50.5875 40.9522 50.8333 40.3333 50.8333H35.6667C35.0478 50.8333 34.4543 50.5875 34.0168 50.1499C33.5792 49.7123 33.3333 49.1188 33.3333 48.5V45.5833C33.3333 43.8333 31.4375 42.403 30.713 41.5Z" fill="white"/>
</g>
<defs>
<linearGradient id="paint0_linear_2302_1128" x1="0" y1="0" x2="76" y2="76" gradientUnits="userSpaceOnUse">
<stop stop-color="#9D54C2"/>
<stop offset="1" stop-color="#66288F"/>
</linearGradient>
<clipPath id="clip0_2302_1128">
<rect width="28" height="28" fill="white" transform="translate(24 24)"/>
</clipPath>
</defs>
</svg>
