<svg width="76" height="76" viewBox="0 0 76 76" fill="none" xmlns="http://www.w3.org/2000/svg">
<path fill-rule="evenodd" clip-rule="evenodd" d="M76 0H0V76H53.7401L76 53.7401V0Z" fill="url(#paint0_linear_2302_1115)"/>
<g clip-path="url(#clip0_2302_1115)">
<path d="M26.3333 49.6667C26.3333 47.1913 27.3167 44.8173 29.067 43.067C30.8174 41.3167 33.1913 40.3333 35.6667 40.3333C38.142 40.3333 40.516 41.3167 42.2663 43.067C44.0167 44.8173 45 47.1913 45 49.6667H42.6667C42.6667 47.8101 41.9292 46.0297 40.6164 44.7169C39.3037 43.4042 37.5232 42.6667 35.6667 42.6667C33.8102 42.6667 32.0297 43.4042 30.7169 44.7169C29.4042 46.0297 28.6667 47.8101 28.6667 49.6667H26.3333ZM35.6667 39.1667C31.7992 39.1667 28.6667 36.0342 28.6667 32.1667C28.6667 28.2992 31.7992 25.1667 35.6667 25.1667C39.5342 25.1667 42.6667 28.2992 42.6667 32.1667C42.6667 36.0342 39.5342 39.1667 35.6667 39.1667ZM35.6667 36.8333C38.245 36.8333 40.3333 34.745 40.3333 32.1667C40.3333 29.5883 38.245 27.5 35.6667 27.5C33.0883 27.5 31 29.5883 31 32.1667C31 34.745 33.0883 36.8333 35.6667 36.8333ZM45.3313 41.1535C46.9709 41.8919 48.3623 43.0881 49.3384 44.5983C50.3144 46.1085 50.8335 47.8685 50.8333 49.6667H48.5C48.5003 48.318 48.111 46.9979 47.3789 45.8652C46.6469 44.7324 45.6033 43.8353 44.3735 43.2815L45.3313 41.1535ZM44.5287 27.9818C45.7041 28.4663 46.7091 29.2891 47.4162 30.3458C48.1233 31.4024 48.5005 32.6453 48.5 33.9167C48.5005 35.5177 47.9023 37.0611 46.823 38.2436C45.7436 39.4262 44.2611 40.1624 42.6667 40.3077V37.9592C43.5311 37.8353 44.3331 37.4377 44.9549 36.8245C45.5766 36.2114 45.9855 35.415 46.1214 34.5524C46.2572 33.6898 46.113 32.8063 45.7098 32.0317C45.3066 31.2571 44.6657 30.6322 43.8812 30.2487L44.5287 27.9818Z" fill="white"/>
</g>
<defs>
<linearGradient id="paint0_linear_2302_1115" x1="0" y1="0" x2="76" y2="76" gradientUnits="userSpaceOnUse">
<stop stop-color="#9D54C2"/>
<stop offset="1" stop-color="#66288F"/>
</linearGradient>
<clipPath id="clip0_2302_1115">
<rect width="28" height="28" fill="white" transform="translate(24 24)"/>
</clipPath>
</defs>
</svg>
