<svg width="76" height="76" viewBox="0 0 76 76" fill="none" xmlns="http://www.w3.org/2000/svg">
<path fill-rule="evenodd" clip-rule="evenodd" d="M76 0H0V76H53.7401L76 53.7401V0Z" fill="url(#paint0_linear_2302_1102)"/>
<g clip-path="url(#clip0_2302_1102)">
<path d="M26.3333 38C26.3333 36.9908 26.4616 36.0132 26.702 35.0787C27.3465 35.1126 27.9879 34.9676 28.5552 34.6597C29.1224 34.3518 29.5935 33.8931 29.9164 33.3342C30.2392 32.7753 30.4013 32.1381 30.3845 31.4928C30.3678 30.8476 30.173 30.2196 29.8216 29.6782C31.2321 28.2905 32.9726 27.2848 34.8791 26.7557C35.172 27.3314 35.6184 27.8149 36.169 28.1525C36.7196 28.4902 37.3529 28.669 37.9988 28.669C38.6447 28.669 39.278 28.4902 39.8286 28.1525C40.3792 27.8149 40.8257 27.3314 41.1185 26.7557C43.0251 27.2848 44.7655 28.2905 46.176 29.6782C45.8242 30.2197 45.6291 30.848 45.6123 31.4935C45.5954 32.139 45.7575 32.7766 46.0805 33.3357C46.4036 33.8948 46.875 34.3537 47.4426 34.6615C48.0103 34.9693 48.652 35.1141 49.2968 35.0798C49.5371 36.0132 49.6655 36.9908 49.6655 38C49.6655 39.0092 49.5371 39.9868 49.2968 40.9213C48.6522 40.8872 48.0107 41.0321 47.4432 41.3398C46.8758 41.6476 46.4045 42.1063 46.0815 42.6653C45.7585 43.2242 45.5964 43.8615 45.613 44.5069C45.6297 45.1522 45.8245 45.7803 46.176 46.3218C44.7655 47.7095 43.0251 48.7153 41.1185 49.2443C40.8257 48.6686 40.3792 48.1852 39.8286 47.8475C39.278 47.5098 38.6447 47.3311 37.9988 47.3311C37.3529 47.3311 36.7196 47.5098 36.169 47.8475C35.6184 48.1852 35.172 48.6686 34.8791 49.2443C32.9726 48.7153 31.2321 47.7095 29.8216 46.3218C30.1734 45.7803 30.3685 45.1521 30.3853 44.5066C30.4022 43.861 30.2401 43.2235 29.9171 42.6643C29.5941 42.1052 29.1226 41.6463 28.555 41.3385C27.9874 41.0307 27.3456 40.8859 26.7008 40.9202C26.4616 39.988 26.3333 39.0103 26.3333 38ZM31.938 41.5C32.673 42.7728 32.883 44.237 32.596 45.6113C33.072 45.9497 33.5783 46.2425 34.1091 46.4863C35.1786 45.5283 36.5642 44.999 38 45C39.47 45 40.8443 45.5495 41.8908 46.4863C42.4216 46.2425 42.928 45.9497 43.404 45.6113C43.1093 44.2066 43.3436 42.7426 44.062 41.5C44.779 40.2568 45.9298 39.322 47.2936 38.875C47.3476 38.2929 47.3476 37.7071 47.2936 37.125C45.9294 36.6782 44.7782 35.7435 44.0608 34.5C43.3425 33.2574 43.1082 31.7934 43.4028 30.3887C42.9269 30.0503 42.4203 29.7573 41.8896 29.5137C40.8205 30.4714 39.4354 31.0007 38 31C36.5642 31.001 35.1786 30.4717 34.1091 29.5137C33.5785 29.7573 33.0718 30.0503 32.596 30.3887C32.8906 31.7934 32.6563 33.2574 31.938 34.5C31.2209 35.7432 30.0701 36.678 28.7063 37.125C28.6524 37.7071 28.6524 38.2929 28.7063 38.875C30.0706 39.3218 31.2206 40.2566 31.938 41.5ZM38 41.5C37.0717 41.5 36.1815 41.1313 35.5251 40.4749C34.8687 39.8185 34.5 38.9283 34.5 38C34.5 37.0718 34.8687 36.1815 35.5251 35.5251C36.1815 34.8688 37.0717 34.5 38 34.5C38.9282 34.5 39.8185 34.8688 40.4749 35.5251C41.1312 36.1815 41.5 37.0718 41.5 38C41.5 38.9283 41.1312 39.8185 40.4749 40.4749C39.8185 41.1313 38.9282 41.5 38 41.5ZM38 39.1667C38.3094 39.1667 38.6061 39.0438 38.8249 38.825C39.0437 38.6062 39.1666 38.3094 39.1666 38C39.1666 37.6906 39.0437 37.3938 38.8249 37.1751C38.6061 36.9563 38.3094 36.8333 38 36.8333C37.6906 36.8333 37.3938 36.9563 37.175 37.1751C36.9562 37.3938 36.8333 37.6906 36.8333 38C36.8333 38.3094 36.9562 38.6062 37.175 38.825C37.3938 39.0438 37.6906 39.1667 38 39.1667Z" fill="white"/>
</g>
<defs>
<linearGradient id="paint0_linear_2302_1102" x1="0" y1="0" x2="76" y2="76" gradientUnits="userSpaceOnUse">
<stop stop-color="#9D54C2"/>
<stop offset="1" stop-color="#66288F"/>
</linearGradient>
<clipPath id="clip0_2302_1102">
<rect width="28" height="28" fill="white" transform="translate(24 24)"/>
</clipPath>
</defs>
</svg>
