<svg width="49" height="48" viewBox="0 0 49 48" fill="none" xmlns="http://www.w3.org/2000/svg">
<rect x="0.5" width="48" height="48" rx="24" fill="#FFDAA2"/>
<path d="M36.7344 17.8594C36.4531 16.7344 35.5625 15.8438 34.4844 15.5625C32.4688 15 24.5 15 24.5 15C24.5 15 16.4844 15 14.4688 15.5625C13.3906 15.8438 12.5 16.7344 12.2188 17.8594C11.6562 19.8281 11.6562 24.0469 11.6562 24.0469C11.6562 24.0469 11.6562 28.2188 12.2188 30.2344C12.5 31.3594 13.3906 32.2031 14.4688 32.4844C16.4844 33 24.5 33 24.5 33C24.5 33 32.4688 33 34.4844 32.4844C35.5625 32.2031 36.4531 31.3594 36.7344 30.2344C37.2969 28.2188 37.2969 24.0469 37.2969 24.0469C37.2969 24.0469 37.2969 19.8281 36.7344 17.8594ZM21.875 27.8438V20.25L28.5312 24.0469L21.875 27.8438Z" fill="#1D181F"/>
</svg>
