<svg width="105" height="45" viewBox="0 0 105 45" fill="none" xmlns="http://www.w3.org/2000/svg">
<path d="M49.4481 6.58362L50.3141 6.08362L50.1836 5.85763L49.9593 5.72421L49.4481 6.58362ZM37.5044 20.6435L38.4408 20.2927L37.5044 20.6435ZM99.0811 44.523C99.587 44.7446 100.177 44.5141 100.398 44.0082L104.009 35.7643C104.231 35.2584 104 34.6687 103.494 34.4471C102.988 34.2255 102.399 34.456 102.177 34.9619L98.9675 42.2898L91.6396 39.0802C91.1337 38.8586 90.544 39.0891 90.3224 39.595C90.1008 40.1009 90.3313 40.6906 90.8372 40.9122L99.0811 44.523ZM2.38874 23.2571C5.224 17.6499 10.975 10.1376 18.9553 5.8204C26.866 1.54088 37.0289 0.358763 48.9368 7.44303L49.9593 5.72421C37.4217 -1.73475 26.5079 -0.539311 18.0037 4.06131C9.56907 8.62427 3.56697 16.4947 0.60393 22.3546L2.38874 23.2571ZM48.582 7.08362C51.4771 12.098 52.2564 15.7428 51.9354 18.2619C51.6229 20.7146 50.2547 22.2151 48.4816 23.008C46.6626 23.8215 44.3916 23.8923 42.4159 23.3371C40.4167 22.7753 38.9479 21.6464 38.4408 20.2927L36.5679 20.9943C37.3847 23.1747 39.5445 24.6076 41.8748 25.2625C44.2288 25.9241 46.9885 25.8666 49.298 24.8338C51.6534 23.7805 53.5114 21.7168 53.9194 18.5147C54.319 15.379 53.3132 11.2782 50.3141 6.08362L48.582 7.08362ZM38.4408 20.2927C37.3504 17.3821 38.821 14.1188 42.5675 11.5279C46.2785 8.96141 51.9926 7.27426 58.5679 7.65621C71.6349 8.41525 88.1561 17.3741 98.5509 43.971L100.414 43.243C89.7913 16.0635 72.6756 6.47233 58.6839 5.65957C51.7299 5.25563 45.5593 7.02713 41.4299 9.8829C37.3359 12.7142 35.0104 16.8366 36.5679 20.9943L38.4408 20.2927Z" fill="white"/>
</svg>
